<svg xmlns="http://www.w3.org/2000/svg" viewBox="0 0 64 64" role="img" aria-label="Zephyr sun mark">
  <defs><linearGradient id="g" x1="8" y1="8" x2="56" y2="56"><stop stop-color="#fff0a7"/><stop offset=".48" stop-color="#e6b85d"/><stop offset="1" stop-color="#9c6422"/></linearGradient></defs>
  <g fill="none" stroke="url(#g)" stroke-linecap="round" stroke-linejoin="round">
    <circle cx="32" cy="32" r="10" stroke-width="2.6"/>
    <circle cx="32" cy="32" r="3" stroke-width="2"/>
    <path stroke-width="2.3" d="M32 5v9M32 50v9M5 32h9M50 32h9M13 13l6.4 6.4M44.6 44.6 51 51M51 13l-6.4 6.4M19.4 44.6 13 51"/>
    <path stroke-width="1.6" opacity=".72" d="M21 7.8l3.4 8.2M39.6 48l3.4 8.2M7.8 43l8.2-3.4M48 24.4l8.2-3.4M7.8 21l8.2 3.4M48 39.6l8.2 3.4M21 56.2l3.4-8.2M39.6 16 43 7.8"/>
  </g>
</svg>